<svg width="261" height="263" viewBox="0 0 261 263" fill="none" xmlns="http://www.w3.org/2000/svg">
<path d="M157.941 156.303H232.249H242.652L259 99.8087H187.169L180.63 116.913L168.344 149.047H144.102C144.88 150.839 144.98 152.308 143.574 152.675C139.918 153.632 134.996 151.058 133.089 149.433C132.929 149.297 132.791 149.167 132.676 149.047C132.59 148.957 132.515 148.878 132.45 148.811C134.46 151.756 136.666 155.495 136.979 158.895L156.455 157.358L157.941 156.303Z" fill="#262A38"/>
<path d="M153.061 205.542L142.584 243.378L179.738 261L200.216 217.865L216.892 182.737C192.717 169.468 176.105 188.265 170.821 199.322L153.061 205.542Z" fill="#DADADA"/>
<path d="M39.5429 217.865L62.3308 261L104.934 247.605L101.962 237.167C80.4459 232.811 57.818 226.465 39.5429 217.865Z" fill="#DADADA"/>
<path d="M109.393 97.2172H115.833C114.512 95.144 112.068 85.9183 112.86 65.6009C113.533 48.3591 113.064 46.5703 112.907 46.4238H112.86C112.86 46.4238 112.879 46.3977 112.907 46.4238H114.842V40.2034C110.879 39.6851 105.43 31.3923 109.393 28.8008C112.563 26.7276 115.007 32.0833 115.833 35.0204L117.319 24.6544C120.093 27.1422 128.383 21.199 132.181 17.9165C132.181 21.6482 137.022 24.6544 139.442 25.691C140.4 37.5008 134.888 44.5899 131.233 47.2965C133.228 51.061 129.393 95.7438 123.759 97.2172C127.609 97.5626 136.137 96.5948 139.442 89.9606C140.351 76.1384 141.594 62.7671 142.584 53.68C144.73 40.5496 147.141 13.4595 139.611 10.1424C130.199 5.99596 118.31 -4.37004 107.411 7.55086C96.5126 19.4718 96.0172 47.4587 95.5218 50.5694C93.21 66.3 92.7476 97.6525 109.393 97.2172Z" fill="#2D3142"/>
<path d="M168.344 149.047L180.63 116.913C175.378 97.7355 160.418 58.241 142.584 53.68C141.594 62.7671 140.351 76.1384 139.442 89.9606C138.078 110.723 137.47 132.503 139.611 142.309C141.082 144.04 143.125 146.798 144.102 149.047H168.344Z" fill="#EF8354"/>
<path d="M109.393 158.895L97.9987 160.45V133.498L90.5679 129.672L80.1648 124.316L88.5864 86.3321L90.5679 129.672L97.9987 133.498C100.737 133.097 104.754 132.837 109.393 133.031V97.2172C92.7476 97.6525 93.21 66.3 95.5218 50.5694C72.7116 70.6108 28.8319 117.017 35.7941 142.309C56.6727 141.81 83.5733 154.662 109.393 166.647V158.895Z" fill="#EF8354"/>
<path d="M109.393 133.031C118.739 133.422 130.606 135.659 139.611 142.309C137.47 132.503 138.078 110.723 139.442 89.9606C136.137 96.5948 127.609 97.5626 123.759 97.2172C129.393 95.7438 133.228 51.061 131.233 47.2965C130.867 47.5676 130.52 47.7948 130.199 47.9783C126.236 56.789 116.328 62.4903 114.842 46.4238H112.907C113.064 46.5703 113.533 48.3591 112.86 65.6009C112.068 85.9183 114.512 95.144 115.833 97.2172H109.393V133.031Z" fill="#DADADA"/>
<path d="M136.144 163.041C135.153 164.251 132.577 165.529 130.199 160.968C130.034 164.423 128.118 169.883 121.777 164.078C119.961 167.533 114.941 171.334 109.393 158.895V166.647C116.458 169.926 123.442 173.141 130.199 175.999L156.455 157.358L136.979 158.895C137.115 160.372 136.894 161.785 136.144 163.041Z" fill="#DADADB"/>
<path d="M157.941 187.92L153.061 205.542L170.821 199.322C176.105 188.265 192.717 169.468 216.892 182.737L200.216 217.865C249.888 202.422 242.268 170.39 232.249 156.303H157.941L156.455 157.358L130.199 175.999C140.666 182.342 150.174 182.035 157.941 187.92Z" fill="#262A38"/>
<path d="M153.061 205.542L157.941 187.92C150.174 182.035 140.666 182.342 130.199 175.999C123.442 173.141 116.458 169.926 109.393 166.647C83.5733 154.662 56.6727 141.81 35.7941 142.309C23.0169 142.615 12.495 147.921 5.85648 161.487C-6.24318 186.212 11.5396 204.686 39.5429 217.865C57.818 226.465 80.4459 232.811 101.962 237.167C109.971 238.789 117.826 240.135 125.245 241.219C131.375 242.115 137.208 242.832 142.584 243.378L153.061 205.542Z" fill="#2D3142"/>
<path d="M114.842 46.4238C116.328 62.4903 126.236 56.789 130.199 47.9783C130.641 46.996 130.983 46.8241 131.233 47.2965C134.888 44.5899 140.4 37.5008 139.442 25.691C137.022 24.6544 132.181 21.6482 132.181 17.9165C128.383 21.199 120.093 27.1422 117.319 24.6544L115.833 35.0204C115.007 32.0833 112.563 26.7276 109.393 28.8008C105.43 31.3923 110.879 39.6851 114.842 40.2034V46.4238Z" fill="#FEFEFE"/>
<path d="M133.089 149.433C134.996 151.058 139.918 153.632 143.574 152.675C144.98 152.308 144.88 150.839 144.102 149.047C143.125 146.798 141.082 144.04 139.611 142.309C130.606 135.659 118.739 133.422 109.393 133.031C104.754 132.837 100.737 133.097 97.9987 133.498V160.45L109.393 158.895C114.941 171.334 119.961 167.533 121.777 164.078C128.118 169.883 130.034 164.423 130.199 160.968C132.577 165.529 135.153 164.251 136.144 163.041C136.894 161.785 137.115 160.372 136.979 158.895C136.666 155.495 134.46 151.756 132.45 148.811C131.626 147.944 132.502 148.833 133.089 149.433Z" fill="#FEFEFE"/>
<path d="M142.584 243.378L153.061 205.542M142.584 243.378L179.738 261L200.216 217.865M142.584 243.378C137.208 242.832 131.375 242.115 125.245 241.219M153.061 205.542L157.941 187.92C150.174 182.035 140.666 182.342 130.199 175.999M153.061 205.542L170.821 199.322C176.105 188.265 192.717 169.468 216.892 182.737L200.216 217.865M39.5429 217.865C11.5396 204.686 -6.24318 186.212 5.85648 161.487C12.495 147.921 23.0169 142.615 35.7941 142.309M39.5429 217.865L62.3308 261L104.934 247.605M39.5429 217.865C57.818 226.465 80.4459 232.811 101.962 237.167M125.245 241.219L104.934 247.605M125.245 241.219C117.826 240.135 109.971 238.789 101.962 237.167M104.934 247.605L101.962 237.167M130.199 175.999C123.442 173.141 116.458 169.926 109.393 166.647M130.199 175.999L156.455 157.358M232.249 156.303H157.941L156.455 157.358M232.249 156.303C242.268 170.39 249.888 202.422 200.216 217.865M232.249 156.303H242.652L259 99.8087H187.169L180.63 116.913M180.63 116.913L168.344 149.047H144.102M180.63 116.913C175.378 97.7355 160.418 58.241 142.584 53.68M142.584 53.68C141.594 62.7671 140.351 76.1384 139.442 89.9606M142.584 53.68C144.73 40.5496 147.141 13.4595 139.611 10.1424C130.199 5.99596 118.31 -4.37004 107.411 7.55086C96.5126 19.4718 96.0172 47.4587 95.5218 50.5694M139.611 142.309C130.606 135.659 118.739 133.422 109.393 133.031M139.611 142.309C137.47 132.503 138.078 110.723 139.442 89.9606M139.611 142.309C141.082 144.04 143.125 146.798 144.102 149.047M133.089 149.433C134.996 151.058 139.918 153.632 143.574 152.675C144.98 152.308 144.88 150.839 144.102 149.047M133.089 149.433C132.929 149.297 132.791 149.167 132.676 149.047C132.59 148.957 132.515 148.878 132.45 148.811M133.089 149.433C132.502 148.833 131.626 147.944 132.45 148.811M132.45 148.811C134.46 151.756 136.666 155.495 136.979 158.895M109.393 158.895C114.941 171.334 119.961 167.533 121.777 164.078C128.118 169.883 130.034 164.423 130.199 160.968C132.577 165.529 135.153 164.251 136.144 163.041C136.894 161.785 137.115 160.372 136.979 158.895M109.393 158.895L97.9987 160.45V133.498M109.393 158.895V166.647M97.9987 133.498C100.737 133.097 104.754 132.837 109.393 133.031M97.9987 133.498L90.5679 129.672M109.393 166.647C83.5733 154.662 56.6727 141.81 35.7941 142.309M109.393 133.031V97.2172M109.393 97.2172H115.833C114.512 95.144 112.068 85.9183 112.86 65.6009C113.533 48.3591 113.064 46.5703 112.907 46.4238M109.393 97.2172C92.7476 97.6525 93.21 66.3 95.5218 50.5694M114.842 46.4238C116.328 62.4903 126.236 56.789 130.199 47.9783M114.842 46.4238V40.2034C110.879 39.6851 105.43 31.3923 109.393 28.8008C112.563 26.7276 115.007 32.0833 115.833 35.0204L117.319 24.6544C120.093 27.1422 128.383 21.199 132.181 17.9165C132.181 21.6482 137.022 24.6544 139.442 25.691C140.4 37.5008 134.888 44.5899 131.233 47.2965M114.842 46.4238H112.907M130.199 47.9783C130.52 47.7948 130.867 47.5676 131.233 47.2965M130.199 47.9783C130.641 46.996 130.983 46.8241 131.233 47.2965M139.442 89.9606C136.137 96.5948 127.609 97.5626 123.759 97.2172C129.393 95.7438 133.228 51.061 131.233 47.2965M95.5218 50.5694C72.7116 70.6108 28.8319 117.017 35.7941 142.309M66.7893 117.43L80.1648 124.316M80.1648 124.316L88.5864 86.3321L90.5679 129.672M80.1648 124.316L90.5679 129.672M136.979 158.895L156.455 157.358M112.907 46.4238H112.86C112.86 46.4238 112.879 46.3977 112.907 46.4238Z" stroke="#262A38" stroke-width="3"/>
</svg>
